# xmcd
#
# Track frame offsets: 
#        150
#        10815
#        34555
#        57042
#        84310
#        111307
#        138045
#        158394
#        180495
#        197625
#        225432
#        239225
#        253628
#        272769
#        303839
#
# Disc length: 4442 seconds
#
# Revision: 2
# Processed by: cddbd v1.5.2PL0 Copyright (c) Steve Scherf et al.
# Submitted via: ExactAudioCopy v0.99pb5
#
DISCID=b111580f
DTITLE=Omar and The Howlers - Bamboozled
DYEAR=2006
DGENRE=Bluesrock
TTITLE0=Shake For Me
TTITLE1=Mississippi Hoo Doo Man
TTITLE2=Bamboozled
TTITLE3=East Side Blues
TTITLE4=Magic Man
TTITLE5=South Congress Blues
TTITLE6=Boogie Man
TTITLE7=Muddy Springs Road
TTITLE8=That's Just My Life
TTITLE9=Snake Oil Doctor
TTITLE10=Bad Seed
TTITLE11=Wall Of Pride
TTITLE12=Hard Times In The Land Of Plenty
TTITLE13=Monkey Land
TTITLE14=Rock n' Roll Ball
EXTD=Label: Ruf Records GmbH\nRUF 1115
EXTT0=
EXTT1=
EXTT2=
EXTT3=
EXTT4=
EXTT5=
EXTT6=
EXTT7=
EXTT8=
EXTT9=
EXTT10=
EXTT11=
EXTT12=
EXTT13=
EXTT14=
PLAYORDER=
